<svg width="50" height="50" viewBox="0 0 50 50" fill="none" xmlns="http://www.w3.org/2000/svg">
<path d="M44.1176 25C44.1176 14.4416 35.5584 5.88235 25 5.88235C14.4416 5.88235 5.88235 14.4416 5.88235 25C5.88235 35.5584 14.4416 44.1176 25 44.1176V50L23.7132 49.9684C10.9303 49.3203 0.679679 39.0697 0.0315947 26.2868L0 25C0 11.1929 11.1929 0 25 0L26.2868 0.0315947C39.4959 0.701285 50 11.6244 50 25L49.9684 26.2868C49.2987 39.4959 38.3756 50 25 50V44.1176C35.5584 44.1176 44.1176 35.5584 44.1176 25Z" fill="#0C78F7"/>
<path d="M14.5693 12.9304C13.9214 12.2826 12.8711 12.2826 12.2233 12.9304C11.5755 13.5782 11.5755 14.6286 12.2233 15.2764L14.8977 17.9508C15.5455 18.5986 16.5958 18.5986 17.2437 17.9508C17.8915 17.303 17.8915 16.2526 17.2437 15.6048L14.5693 12.9304Z" fill="#0C78F7"/>
<path d="M12.5228 23.6931H8.74003C7.82374 23.6931 7.08093 24.4359 7.08093 25.3522C7.08093 26.2685 7.82374 27.0113 8.74003 27.0113H12.5228C13.4391 27.0113 14.1819 26.2685 14.1819 25.3522C14.1819 24.4359 13.4391 23.6931 12.5228 23.6931Z" fill="#0C78F7"/>
<path d="M14.8955 32.7515L12.2211 35.4259C11.5733 36.0737 11.5733 37.124 12.2211 37.7719C12.869 38.4197 13.9193 38.4197 14.5671 37.7719L17.2415 35.0975C17.8893 34.4496 17.8893 33.3993 17.2415 32.7515C16.5937 32.1037 15.5434 32.1037 14.8955 32.7515Z" fill="#0C78F7"/>
<path d="M26.3065 37.4775C26.3065 36.5612 25.5637 35.8184 24.6474 35.8184C23.7311 35.8184 22.9883 36.5612 22.9883 37.4775V41.2602C22.9883 42.1765 23.7311 42.9193 24.6474 42.9193C25.5637 42.9193 26.3065 42.1765 26.3065 41.2602V37.4775Z" fill="#0C78F7"/>
<path d="M34.3879 32.7533C33.7401 32.1055 32.6898 32.1055 32.042 32.7533C31.3941 33.4011 31.3941 34.4514 32.042 35.0993L34.7164 37.7736C35.3642 38.4215 36.4145 38.4215 37.0623 37.7736C37.7101 37.1258 37.7101 36.0755 37.0623 35.4277L34.3879 32.7533Z" fill="#0C78F7"/>
<path d="M25.9873 0.0194437C39.0087 0.525301 49.4746 10.9912 49.9805 24.0126C49.9856 24.1403 49.9652 24.2681 49.9199 24.3876C49.8746 24.507 49.8052 24.6158 49.7168 24.7079C49.6284 24.8 49.5226 24.8736 49.4053 24.9237C49.2878 24.9739 49.161 24.9998 49.0332 24.9999H25.9473C25.696 24.9999 25.455 24.9002 25.2773 24.7226C25.0997 24.5449 25 24.3039 25 24.0526V0.966709C25.0002 0.839144 25.0261 0.71295 25.0762 0.595616C25.1263 0.478145 25.1998 0.371557 25.292 0.283116C25.3842 0.194665 25.4938 0.12527 25.6133 0.0799906C25.7326 0.0348591 25.8598 0.0143256 25.9873 0.0194437ZM36.7793 12.8817C36.1625 12.2649 35.1627 12.2649 34.5459 12.8817L31.999 15.4276C31.3824 16.0444 31.3825 17.0442 31.999 17.661C32.6158 18.2778 33.6156 18.2778 34.2324 17.661L36.7793 15.1151C37.396 14.4984 37.3959 13.4986 36.7793 12.8817Z" fill="#0C78F7"/>
</svg>
